HIERARCHY
ROOT Hips
{
	OFFSET 0.000000 0.000000 0.000000
	CHANNELS 6 Xposition Yposition Zposition Zrotation Yrotation Xrotation 
	JOINT LHipJoint
	{
		OFFSET 0.000000 0.000000 0.000000
		CHANNELS 3 Zrotation Yrotation Xrotation
		JOINT LeftUpLeg
		{
			OFFSET 1.363060 -1.794630 0.839290
			CHANNELS 3 Zrotation Yrotation Xrotation
			JOINT LeftLeg
			{
				OFFSET 2.448110 -6.726130 0.000000
				CHANNELS 3 Zrotation Yrotation Xrotation
				JOINT LeftFoot
				{
					OFFSET 2.562200 -7.039590 0.000000
					CHANNELS 3 Zrotation Yrotation Xrotation
					JOINT LeftToeBase
					{
						OFFSET 0.157640 -0.433110 2.322550
						CHANNELS 3 Zrotation Yrotation Xrotation
						End Site
						{
							OFFSET 0.000000 0.000000 0.000000
						}
					}
				}
			}
		}
	}
	JOINT RHipJoint
	{
		OFFSET 0.000000 0.000000 0.000000
		CHANNELS 3 Zrotation Yrotation Xrotation
		JOINT RightUpLeg
		{
			OFFSET -1.305520 -1.794630 0.839290
			CHANNELS 3 Zrotation Yrotation Xrotation
			JOINT RightLeg
			{
				OFFSET -2.542530 -6.985550 0.000000
				CHANNELS 3 Zrotation Yrotation Xrotation
				JOINT RightFoot
				{
					OFFSET -2.568260 -7.056230 0.000000
					CHANNELS 3 Zrotation Yrotation Xrotation
					JOINT RightToeBase
					{
						OFFSET -0.164730 -0.452590 2.363150
						CHANNELS 3 Zrotation Yrotation Xrotation
						End Site
						{
							OFFSET 0.000000 0.000000 0.000000
						}
					}
				}
			}
		}
	}
	JOINT LowerBack
	{
		OFFSET 0.000000 0.000000 0.000000
		CHANNELS 3 Zrotation Yrotation Xrotation
		JOINT Spine
		{
			OFFSET 0.028270 2.035590 -0.193380
			CHANNELS 3 Zrotation Yrotation Xrotation
			JOINT Spine1
			{
				OFFSET 0.056720 2.048850 -0.042750
				CHANNELS 3 Zrotation Yrotation Xrotation
				JOINT Neck
				{
					OFFSET 0.000000 0.000000 0.000000
					CHANNELS 3 Zrotation Yrotation Xrotation
					JOINT Neck1
					{
						OFFSET -0.054170 1.746240 0.172020
						CHANNELS 3 Zrotation Yrotation Xrotation
						JOINT Head
						{
							OFFSET 0.104070 1.761360 -0.123970
							CHANNELS 3 Zrotation Yrotation Xrotation
							End Site
							{
								OFFSET 0.000000 0.000000 0.000000
							}
						}
					}
				}
				JOINT LeftShoulder
				{
					OFFSET 0.000000 0.000000 0.000000
					CHANNELS 3 Zrotation Yrotation Xrotation
					JOINT LeftArm
					{
						OFFSET 3.362410 1.200890 -0.311210
						CHANNELS 3 Zrotation Yrotation Xrotation
						JOINT LeftForeArm
						{
							OFFSET 4.983000 -0.000000 -0.000000
							CHANNELS 3 Zrotation Yrotation Xrotation
							JOINT LeftHand
							{
								OFFSET 3.483560 -0.000000 -0.000000
								CHANNELS 3 Zrotation Yrotation Xrotation
								JOINT LeftFingerBase
								{
									OFFSET 0.000000 0.000000 0.000000
									CHANNELS 3 Zrotation Yrotation Xrotation
									JOINT LeftHandIndex1
									{
										OFFSET 0.715260 -0.000000 -0.000000
										CHANNELS 3 Zrotation Yrotation Xrotation
										End Site
										{
											OFFSET 0.000000 0.000000 0.000000
										}
									}
								}
								JOINT LThumb
								{
									OFFSET 0.000000 0.000000 0.000000
									CHANNELS 3 Zrotation Yrotation Xrotation
									End Site
									{
										OFFSET 0.000000 0.000000 0.000000
									}
								}
							}
						}
					}
				}
				JOINT RightShoulder
				{
					OFFSET 0.000000 0.000000 0.000000
					CHANNELS 3 Zrotation Yrotation Xrotation
					JOINT RightArm
					{
						OFFSET -3.136600 1.374050 -0.404650
						CHANNELS 3 Zrotation Yrotation Xrotation
						JOINT RightForeArm
						{
							OFFSET -5.241900 -0.000000 -0.000000
							CHANNELS 3 Zrotation Yrotation Xrotation
							JOINT RightHand
							{
								OFFSET -3.444170 -0.000000 -0.000000
								CHANNELS 3 Zrotation Yrotation Xrotation
								JOINT RightFingerBase
								{
									OFFSET 0.000000 0.000000 0.000000
									CHANNELS 3 Zrotation Yrotation Xrotation
									JOINT RightHandIndex1
									{
										OFFSET -0.622530 -0.000000 -0.000000
										CHANNELS 3 Zrotation Yrotation Xrotation
										End Site
										{
											OFFSET 0.000000 0.000000 0.000000
										}
									}
								}
								JOINT RThumb
								{
									OFFSET 0.000000 0.000000 0.000000
									CHANNELS 3 Zrotation Yrotation Xrotation
									End Site
									{
										OFFSET 0.000000 0.000000 0.000000
									}
								}
							}
						}
					}
				}
			}
		}
	}
}
MOTION
Frames: 5
Frame Time: 0.008333
-12.677643 15.288288 18.747898 -49.945982 77.158981 -33.231658 7.806071 2.473160 -9.120154 -26.312370 -3.944671 -2.437250 11.074268 10.503209 61.703546 -4.740992 2.875174 5.830176 -1.404475 -0.170974 3.779787 14.186140 -9.167637 4.690872 3.096931 14.094992 -60.585571 -3.591492 -7.763955 31.730813 16.296695 9.061911 0.611654 2.884684 -9.033906 -0.415955 -7.697573 -0.614038 12.357021 6.929544 -3.567223 -7.918438 8.351614 -5.657455 -0.690767 1.267762 1.132868 -8.982541 11.084774 -0.097747 11.366217 -9.181386 13.098425 12.951289 16.491953 -6.211865 1.202803 -84.902129 -28.661795 20.620125 172.966873 -66.302999 -167.067278 -13.198454 21.607750 -5.502380 0.000001 -0.000001 0.000002 0.000000 0.000000 -0.000000 0.000000 0.000000 -0.000000 -6.556642 -1.252500 4.890637 70.912235 12.902067 10.420699 -115.109494 74.705217 -108.497589 13.550323 -4.672719 -1.022710 0.000000 -0.000000 0.000000 0.000000 -0.000000 0.000000 0.000000 -0.000000 0.000000 
-12.367117 15.182132 18.845195 -50.919367 77.174178 -34.886813 8.059425 2.667791 -8.852859 -26.939726 -4.867402 -3.148221 11.310890 11.083258 65.137694 -4.612156 2.229667 5.904227 -1.349124 -2.155597 5.389685 13.570073 -9.318124 4.699062 3.960390 15.068144 -60.500287 -4.712119 -7.856657 36.008843 9.145347 9.089532 -1.938063 1.407056 -5.669731 -1.633122 -7.718833 -0.789213 12.115913 6.723691 -3.407228 -7.562864 8.229415 -5.542544 -0.343427 1.371683 1.124649 -8.870748 11.046031 -0.147158 11.503979 -9.264828 12.906847 12.294291 16.996626 -6.057174 1.241065 -85.651961 -28.167280 21.864068 172.191432 -66.504761 -165.419551 -12.743474 20.864162 -5.219023 0.000001 -0.000001 0.000002 -0.000000 0.000000 0.000000 0.000000 0.000000 0.000000 -6.742105 -1.341831 5.233689 70.720304 13.997187 10.417590 -113.249985 74.964077 -105.973085 13.261881 -4.086460 -0.861283 0.000000 0.000000 -0.000000 -0.000000 -0.000000 0.000000 0.000000 0.000000 -0.000000 
-12.080345 15.092342 18.931381 -52.081501 77.505308 -36.819856 7.640815 2.550756 -8.548168 -26.701358 -6.032333 -4.402487 11.912913 12.271891 68.774642 -5.105146 1.541265 6.061045 -1.371584 -2.428571 5.675564 14.276204 -9.251572 4.184775 3.489521 14.571358 -60.997673 -5.332164 -8.004631 41.876511 4.725693 8.486412 -4.792953 2.358291 -6.185406 1.251346 -8.078654 -0.933295 12.232283 6.727046 -3.238416 -7.354254 8.349379 -5.437549 -0.113299 1.277027 1.039558 -8.668970 10.991574 -0.252025 11.566047 -9.711315 12.514545 12.397670 16.844080 -5.938689 1.341883 -86.347882 -27.617773 23.107136 171.118405 -67.199518 -162.906033 -7.865811 19.532876 -4.056213 0.000001 -0.000001 0.000002 -0.000000 0.000000 -0.000000 0.000000 0.000000 -0.000000 -6.838795 -1.257555 5.537496 70.228751 15.309155 9.065706 -112.274952 76.533750 -106.804700 15.022122 -5.419873 -1.271546 -0.000000 0.000000 0.000000 0.000000 0.000000 -0.000000 -0.000000 0.000000 0.000000 
-11.809099 14.998213 19.004805 -53.963377 77.824068 -39.692779 7.146714 2.156723 -8.373809 -26.271280 -7.013734 -5.349544 11.233577 13.124626 72.527547 -4.238004 1.851826 5.879035 -0.095825 -5.291417 4.895452 14.397925 -8.579142 3.332197 3.437260 13.596111 -60.372173 -4.705203 -7.636884 47.385322 2.463662 5.775346 -7.528725 1.232331 -5.905414 -2.572752 -8.154057 -1.222134 12.802035 6.636424 -3.083571 -7.192190 8.054938 -5.407265 0.249374 1.515087 1.091056 -8.636856 10.924675 -0.298833 11.587622 -9.840865 12.149612 11.195494 17.153894 -5.597317 1.245662 -87.022001 -27.043892 24.055942 170.347802 -67.888026 -160.954608 -7.670509 18.074241 -3.708807 0.000001 -0.000001 0.000002 0.000000 0.000000 -0.000000 0.000000 0.000000 -0.000000 -6.699844 -1.163853 5.805098 69.803839 16.991490 10.489086 -105.775109 75.575809 -95.540780 15.494341 -3.431025 -0.725830 0.000000 0.000000 0.000000 0.000000 -0.000000 0.000000 0.000000 0.000000 0.000000 
-11.546652 14.918619 19.063063 -55.862224 78.037060 -42.505189 6.332022 1.391429 -8.177090 -25.299040 -7.824422 -6.490086 10.778263 14.354918 76.025292 -4.240220 2.222438 5.955470 0.636719 -5.664930 3.478811 14.339177 -6.939790 2.133019 2.415591 12.267006 -58.782610 -3.083376 -8.543682 51.848248 0.876277 2.215384 -9.739549 -0.320293 -6.927091 -9.656859 -8.115394 -1.532394 13.542875 6.573509 -2.681221 -7.141509 6.919520 -4.962375 0.473580 2.531309 1.174111 -8.577945 10.876394 -0.468694 11.566230 -10.053312 11.728883 11.269383 18.058586 -5.844000 0.954624 -87.616780 -26.360463 26.144383 166.600753 -68.387389 -154.607715 -1.969088 14.684088 -2.308623 0.000001 -0.000001 0.000002 -0.000000 -0.000000 0.000000 -0.000000 0.000000 -0.000000 -5.567898 -1.474548 6.021608 69.101554 18.497412 9.819596 -101.549068 76.450057 -89.718821 15.918982 -3.394991 -0.722397 -0.000000 -0.000000 -0.000000 0.000000 0.000000 0.000000 -0.000000 -0.000000 -0.000000 
